{"glyphs":{":":{"x_min":0,"x_max":250,"ha":250,"o":"m 125 472 q 157 472 180 449 q 203 426 203 394 q 203 362 180 339 q 157 316 125 316 q 93 316 70 339 q 47 362 47 394 q 47 426 70 449 q 92 472 125 472 z m 125 143 q 157 143 180 120 q 203 98 203 65 q 203 33 180 10 q 157 -13 125 -13 q 93 -13 70 10 q 47 33 47 65 q 47 97 70 120 q 92 143 125 143 z"},"$":{"x_min":0,"x_max":500,"ha":500,"o":"m 35 195 l 78 195 l 83 115 q 110 83 141 67 q 172 52 220 50 l 220 291 q 139 299 102 320 q 65 340 46 377 q 26 413 26 471 q 26 563 75 616 q 124 669 220 682 q 219 708 216 752 l 245 751 l 271 752 q 268 716 268 682 q 317 682 354 674 q 392 666 435 647 l 437 637 q 425 577 422 501 l 380 501 l 377 580 q 355 604 331 615 q 307 625 268 628 l 268 414 q 356 400 395 378 q 434 357 454 320 q 474 284 474 229 q 474 169 449 120 q 424 71 382 41 q 340 12 268 -1 q 268 -53 270 -100 l 216 -100 q 220 -46 220 -4 q 165 -4 123 5 q 80 14 35 34 l 27 46 q 35 107 35 195 z m 220 627 q 176 617 155 594 q 128 563 128 518 q 128 473 159 445 q 180 427 220 420 z m 268 55 q 314 68 336 92 q 367 126 367 177 q 367 220 344 246 q 320 272 268 282 z"},"?":{"x_min":0,"x_max":444,"ha":444,"o":"m 73 501 l 42 505 l 38 513 q 58 575 70 643 q 105 668 140 680 q 175 691 221 691 q 307 691 357 647 q 407 603 407 538 q 407 494 385 456 q 363 418 301 369 q 225 310 209 288 q 193 267 193 245 q 193 229 204 206 l 170 191 q 144 230 144 265 q 144 289 156 314 q 168 340 210 391 q 249 438 260 464 q 272 490 272 514 q 272 551 247 573 q 222 596 177 596 q 155 596 139 591 q 124 586 105 571 q 94 551 73 501 z m 187 143 q 220 143 242 120 q 265 98 265 65 q 265 33 242 10 q 219 -13 187 -13 q 155 -13 132 10 q 109 33 109 65 q 109 97 132 120 q 155 143 187 143 z"},"<":{"x_min":0,"x_max":606,"ha":606,"o":"m 552 171 l 552 70 l 54 297 l 54 381 l 552 608 l 552 507 l 180 339 z"},"'":{"x_min":0,"x_max":227,"ha":227,"o":"m 85 411 l 62 575 q 59 597 59 617 q 59 653 74 672 q 90 692 113 692 q 137 692 152 672 q 167 653 167 618 q 167 597 164 575 l 141 411 q 138 386 113 386 q 89 386 85 411 z"},"=":{"x_min":0,"x_max":606,"ha":606,"o":"m 54 385 l 54 476 l 552 476 l 552 385 z m 54 202 l 54 293 l 552 293 l 552 202 z"},"a":{"x_min":0,"x_max":500,"ha":500,"o":"m 478 38 l 478 -3 l 440 -1 q 411 0 381 0 q 335 0 294 -3 l 289 2 l 294 70 l 192 -7 q 165 -13 144 -13 q 92 -13 63 18 q 35 48 35 107 q 35 180 74 210 q 124 249 294 280 q 293 337 274 363 q 247 399 191 399 q 178 399 164 396 q 150 393 136 386 l 114 333 l 80 342 l 81 364 l 81 385 l 80 405 q 155 451 188 463 q 211 472 254 472 q 312 472 348 454 q 384 437 400 407 q 417 377 417 320 q 417 296 415 235 q 413 171 413 133 q 413 72 417 59 q 418 51 426 46 q 434 42 478 38 z m 294 238 q 208 219 182 198 q 156 176 156 139 q 156 109 173 92 q 189 75 215 75 q 253 75 294 119 z"},"L":{"x_min":0,"x_max":611,"ha":611,"o":"m 66 -3 l 66 22 q 93 35 117 52 q 124 184 124 328 q 124 440 121 541 q 120 612 114 623 q 112 629 104 632 q 97 635 33 641 l 33 682 q 127 679 208 679 q 286 679 356 682 l 356 641 q 289 636 278 629 q 272 625 269 611 q 267 598 265 453 l 262 215 q 262 148 266 61 q 330 57 360 57 q 453 57 516 71 q 528 116 541 177 l 583 177 q 573 107 564 4 q 518 -3 479 -3 l 302 -1 l 223 0 q 168 0 66 -3 z"},"3":{"x_min":0,"x_max":500,"ha":500,"o":"m 23 170 l 58 179 q 85 105 125 75 q 165 44 217 44 q 272 44 308 81 q 343 119 343 179 q 343 240 307 276 q 271 312 208 312 q 184 312 150 304 l 144 311 q 153 340 164 388 q 184 386 194 386 q 248 386 281 416 q 315 447 315 493 q 315 534 288 560 q 261 586 215 586 q 184 586 157 575 q 130 563 121 552 q 112 541 93 484 l 54 486 q 78 570 86 642 q 125 668 163 679 q 202 691 248 691 q 335 691 382 650 q 430 610 430 545 q 430 497 405 462 q 380 426 317 394 q 375 387 405 369 q 434 351 451 316 q 469 282 469 238 q 469 126 366 50 q 279 -13 171 -13 q 139 -13 108 -6 q 77 1 47 16 q 38 88 23 170 z"},";":{"x_min":0,"x_max":250,"ha":250,"o":"m 149 472 q 182 472 204 449 q 227 426 227 394 q 227 362 204 339 q 181 316 149 316 q 117 316 94 339 q 71 362 71 394 q 71 426 94 449 q 117 472 149 472 z m 6 -172 l -10 -158 q 23 -100 46 -28 q 69 44 73 103 q 150 114 207 137 l 225 121 q 163 -18 78 -139 q 50 -153 6 -172 z"},"J":{"x_min":0,"x_max":389,"ha":389,"o":"m 26 641 l 26 682 q 124 678 183 678 q 270 678 358 682 l 358 641 q 342 641 302 636 q 285 634 280 630 q 274 625 272 618 q 268 603 267 510 l 266 312 l 265 163 q 264 42 261 18 q 253 -42 219 -93 q 184 -144 122 -184 q 75 -214 31 -214 q 17 -214 -4 -208 q -2 -174 -2 -162 q -2 -150 -4 -118 l 7 -113 q 38 -147 77 -147 q 97 -147 107 -136 q 117 -125 120 -74 q 125 4 125 123 l 124 500 q 124 596 120 615 q 117 626 108 631 q 100 636 26 641 z"},"V":{"x_min":0,"x_max":778,"ha":778,"o":"m 7 641 l 7 682 q 100 678 177 678 q 245 678 327 682 l 327 641 q 270 637 259 632 q 248 626 248 615 q 248 601 289 500 l 427 163 l 538 436 q 599 586 599 616 q 599 627 588 632 q 578 637 517 641 l 517 682 q 606 678 637 678 q 668 678 750 682 l 750 641 q 701 636 693 629 q 681 620 636 517 l 486 157 q 440 51 421 -13 l 350 -13 l 177 401 q 117 542 93 593 q 80 623 70 629 q 60 636 7 641 z"},"\"":{"x_min":0,"x_max":402,"ha":402,"o":"m 260 411 l 236 575 q 233 598 233 615 q 233 652 249 672 q 264 692 288 692 q 311 692 326 672 q 342 653 342 616 q 342 598 338 575 l 315 411 q 312 386 287 386 q 263 386 260 411 z m 86 411 l 63 575 q 60 597 60 617 q 60 653 75 672 q 91 692 114 692 q 138 692 153 672 q 168 653 168 618 q 168 597 165 575 l 142 411 q 139 386 114 386 q 90 386 86 411 z"},"7":{"x_min":0,"x_max":500,"ha":500,"o":"m 504 681 l 504 634 q 404 461 317 277 q 231 92 199 -4 q 159 0 140 0 q 118 0 83 -4 l 78 11 q 128 91 172 164 q 216 237 305 392 l 393 547 l 388 555 l 289 556 l 201 556 q 126 556 110 550 q 102 547 97 536 q 88 517 81 439 l 77 435 l 37 438 q 41 493 41 568 q 41 616 37 678 l 45 686 q 188 678 338 678 q 407 678 504 681 z"},"S":{"x_min":0,"x_max":611,"ha":611,"o":"m 70 203 l 113 203 q 113 131 117 118 q 122 106 146 86 q 169 65 208 53 q 246 40 286 40 q 354 40 396 77 q 437 113 437 168 q 437 218 410 245 q 382 272 304 283 q 189 300 149 319 q 108 339 85 378 q 62 417 62 472 q 62 563 127 627 q 191 691 333 691 q 389 691 432 683 q 476 674 519 655 l 524 644 q 516 613 513 588 q 510 563 507 502 l 465 502 q 462 577 458 586 q 448 603 410 620 q 373 638 324 638 q 257 638 220 606 q 183 573 183 522 q 183 491 198 468 q 213 444 240 433 q 268 422 357 408 q 438 396 467 384 q 514 365 539 326 q 563 287 563 228 q 563 124 484 55 q 405 -13 268 -13 q 207 -13 157 -1 q 107 10 54 37 q 62 71 65 99 q 69 138 70 203 z"},"}":{"x_min":0,"x_max":310,"ha":310,"o":"m 183 251 q 137 263 119 288 q 101 313 101 365 l 101 614 q 101 638 90 662 q 83 679 66 692 q 50 705 21 712 q 106 711 128 706 q 173 696 193 670 q 212 644 212 585 l 212 344 q 212 303 231 281 q 250 259 289 251 q 212 231 212 158 l 212 -100 q 212 -169 172 -191 q 131 -214 21 -214 l 32 -210 q 65 -200 83 -177 q 101 -155 101 -115 l 101 144 q 101 176 109 196 q 117 216 133 229 q 149 241 183 251 z"},"Z":{"x_min":0,"x_max":667,"ha":667,"o":"m 24 -3 l 24 35 q 187 240 438 617 l 317 618 q 220 618 167 613 q 144 611 138 605 q 132 599 126 552 l 121 518 l 81 518 q 81 552 83 600 l 84 631 q 84 651 81 677 l 87 682 q 191 676 272 676 q 581 676 630 677 l 630 643 q 410 348 216 58 q 316 54 401 54 q 491 54 542 62 q 557 64 562 70 q 568 78 583 144 l 588 169 l 630 169 q 618 99 613 -3 q 584 -6 555 -6 l 187 0 q 148 0 24 -3 z"},"x":{"x_min":0,"x_max":500,"ha":500,"o":"m 13 -3 l 13 38 q 50 42 64 51 q 86 67 144 141 l 196 207 q 122 319 78 358 q 56 378 27 378 l 13 377 l 13 409 q 48 426 98 462 q 111 472 120 472 q 141 472 173 448 q 194 432 230 377 l 277 308 q 331 377 384 461 q 405 459 424 459 q 451 459 480 461 l 480 421 q 453 418 440 412 q 427 405 407 382 l 307 265 l 359 187 q 423 90 441 75 q 458 59 487 57 l 487 26 q 435 8 375 -19 l 359 -19 q 336 -4 320 15 q 300 41 226 161 q 154 66 113 -3 q 75 0 59 0 q 40 0 13 -3 z"},")":{"x_min":0,"x_max":333,"ha":333,"o":"m 19 -201 q 63 -140 84 -88 q 105 -36 115 35 q 125 106 125 249 q 125 395 115 464 q 105 533 84 586 q 63 638 19 699 l 44 729 q 118 668 165 597 q 211 526 236 440 q 260 354 260 249 q 260 144 236 58 q 211 -28 165 -99 q 118 -170 44 -231 z"},"&":{"x_min":0,"x_max":833,"ha":833,"o":"m 812 125 l 827 93 q 777 44 736 -5 q 704 -13 677 -13 q 590 -13 496 56 q 447 19 400 3 q 353 -13 294 -13 q 189 -13 127 43 q 65 100 65 183 q 65 241 97 286 q 129 330 221 378 q 188 450 188 503 q 188 533 195 552 q 198 563 214 581 l 250 619 q 290 664 310 673 q 347 691 383 691 q 413 691 439 677 q 466 662 480 638 q 494 613 494 581 q 494 529 458 487 q 422 445 335 389 q 413 270 538 163 q 557 191 564 211 q 571 231 571 255 q 571 291 551 328 l 526 328 q 508 329 465 326 l 460 333 q 479 361 492 394 q 572 390 636 390 q 737 390 801 398 l 808 394 q 794 357 791 323 l 785 317 q 689 325 645 326 q 651 306 651 290 q 651 215 582 135 q 665 87 738 87 q 750 87 758 91 q 784 104 812 125 z m 314 431 q 367 466 388 498 q 409 529 409 560 q 409 580 401 595 q 393 611 377 621 q 362 630 349 630 q 328 630 305 612 q 283 593 283 554 q 283 499 314 431 z m 241 338 q 187 303 187 237 q 187 166 240 110 q 293 54 359 54 q 405 54 454 87 q 385 144 338 200 q 290 256 241 338 z"},"_":{"x_min":0,"x_max":500,"ha":500,"o":"m -6 -75 l 506 -75 l 506 -125 l -6 -125 z"},"v":{"x_min":0,"x_max":556,"ha":556,"o":"m 2 421 l 2 461 l 127 459 q 191 459 263 461 l 263 421 q 218 420 209 416 q 201 412 201 403 q 201 397 206 380 l 235 298 l 300 129 l 364 279 q 408 383 408 402 q 408 412 400 416 q 392 419 344 421 l 344 461 q 408 459 448 459 q 491 459 541 461 l 541 421 q 502 420 492 411 q 482 403 436 302 q 389 202 304 -3 l 218 -3 q 186 85 121 248 q 79 354 64 386 q 54 407 45 413 q 37 419 2 421 z"},"O":{"x_min":0,"x_max":833,"ha":833,"o":"m 411 -13 q 230 -13 135 79 q 39 172 39 334 q 39 447 85 527 q 132 606 214 648 q 296 691 426 691 q 550 691 629 650 q 708 609 751 537 q 794 464 794 359 q 794 245 747 161 q 700 78 615 32 q 530 -13 411 -13 z m 429 40 q 527 40 586 113 q 644 185 644 333 q 644 488 577 571 q 523 638 410 638 q 305 638 247 568 q 189 499 189 354 q 189 249 221 177 q 252 104 302 72 q 351 40 429 40 z"},"(":{"x_min":0,"x_max":333,"ha":333,"o":"m 314 -201 l 289 -231 q 215 -170 168 -99 q 122 -27 97 59 q 73 145 73 249 q 73 354 97 439 q 122 525 168 597 q 215 668 289 729 l 314 699 q 270 638 249 586 q 228 534 218 463 q 208 392 208 249 q 208 104 218 34 q 228 -36 249 -88 q 270 -140 314 -201 z"},"C":{"x_min":0,"x_max":722,"ha":722,"o":"m 679 103 l 691 91 q 679 67 669 42 q 612 12 560 -1 q 507 -13 439 -13 q 311 -13 223 32 q 134 77 87 158 q 39 240 39 345 q 39 497 147 594 q 254 691 444 691 q 507 691 569 680 q 630 668 691 646 l 695 638 q 686 612 683 587 q 676 545 673 482 l 632 482 q 629 559 626 567 q 623 574 599 593 q 575 611 534 622 q 494 634 444 634 q 327 634 258 562 q 189 489 189 360 q 189 221 272 134 q 349 54 482 54 q 534 54 579 65 q 625 76 679 103 z"},"W":{"x_min":0,"x_max":1000,"ha":1000,"o":"m -16 641 l -16 682 q 65 678 127 678 q 192 678 278 682 l 278 641 q 226 639 215 633 q 204 627 204 613 q 204 596 235 454 l 290 199 l 415 458 q 488 610 520 682 l 563 682 l 767 175 l 849 478 q 875 576 875 613 q 875 629 865 634 q 854 639 796 641 l 796 682 q 886 678 911 678 q 940 678 1016 682 l 1016 641 q 976 637 965 628 q 953 619 942 584 q 925 531 855 278 l 778 -7 l 686 -7 l 490 487 l 365 223 q 306 99 261 -7 l 191 -7 q 178 52 109 359 l 58 588 q 50 622 41 629 q 31 636 -16 641 z"},"A":{"x_min":0,"x_max":778,"ha":778,"o":"m 31 41 q 77 43 87 50 q 95 55 110 87 q 140 151 187 264 l 359 687 l 431 687 l 652 163 q 695 61 705 51 q 715 41 767 38 l 767 -3 q 687 0 616 0 q 532 0 456 -3 l 456 38 q 514 40 523 44 q 532 48 532 59 q 532 68 511 123 l 479 206 q 418 207 344 207 q 279 207 226 206 l 204 150 q 195 127 183 82 q 180 71 180 63 q 180 52 189 47 q 199 42 258 38 l 258 -3 q 210 0 139 0 q 71 0 31 -3 z m 351 514 l 248 264 q 293 261 347 261 q 404 261 456 264 z"},"f":{"x_min":0,"x_max":389,"ha":389,"o":"m 6 -3 l 6 38 l 37 40 q 66 42 74 49 q 82 57 83 90 q 87 158 87 253 l 86 371 q 38 369 6 366 l 6 392 l 53 416 l 62 419 l 66 422 l 81 429 l 81 475 q 81 530 94 555 q 106 580 160 628 q 233 695 251 706 q 283 726 327 726 q 340 726 355 723 q 370 721 385 715 q 377 658 372 594 l 353 590 q 331 611 310 621 q 289 631 269 631 q 242 631 228 619 q 214 607 211 579 q 208 551 208 429 l 258 429 q 298 429 341 437 l 347 429 q 339 401 334 369 q 305 371 280 371 l 208 371 q 208 160 211 95 q 212 59 222 51 q 233 41 309 38 l 309 -3 q 237 0 170 0 q 104 0 6 -3 z"},"Q":{"x_min":0,"x_max":833,"ha":833,"o":"m 258 -133 l 235 -111 l 268 -84 q 322 -41 386 -13 q 229 -13 134 81 q 39 174 39 334 q 39 447 85 527 q 132 606 214 648 q 296 691 425 691 q 549 691 628 650 q 708 609 750 537 q 793 464 793 359 q 793 247 748 164 q 702 82 624 38 q 546 -5 410 -13 q 447 -18 479 -27 l 607 -70 q 664 -88 698 -95 q 718 -99 735 -99 q 756 -99 774 -94 q 792 -90 827 -74 l 827 -103 l 771 -143 q 730 -170 715 -178 q 705 -182 691 -182 q 658 -182 617 -174 q 576 -165 482 -133 q 415 -110 389 -105 q 363 -99 345 -99 q 324 -99 306 -106 q 288 -112 258 -133 z m 429 44 q 527 44 585 116 q 643 188 643 335 q 643 489 576 571 q 522 638 410 638 q 304 638 247 569 q 189 500 189 355 q 189 251 221 179 q 252 107 301 76 q 350 44 429 44 z"},"w":{"x_min":0,"x_max":833,"ha":833,"o":"m 4 421 l 4 461 q 64 458 157 458 q 225 458 278 461 l 278 421 l 246 420 q 221 419 214 415 q 208 411 208 401 q 208 396 225 328 l 272 152 l 370 367 q 404 441 416 474 l 468 474 q 501 383 606 152 l 649 282 q 682 381 682 399 q 682 410 673 415 q 666 418 612 421 l 612 461 q 681 459 720 459 q 762 459 815 461 l 815 421 q 777 420 768 415 q 762 411 756 401 q 742 376 690 228 q 653 121 616 -3 l 536 -3 q 481 136 403 304 q 318 131 266 -3 l 185 -3 q 164 86 121 237 q 77 387 70 401 q 65 410 60 413 q 50 418 4 421 z"},"-":{"x_min":0,"x_max":333,"ha":333,"o":"m 12 185 l 5 194 q 24 237 37 296 q 127 293 185 293 q 245 293 322 296 l 329 287 q 311 242 294 185 q 213 188 149 188 q 84 188 12 185 z"},"E":{"x_min":0,"x_max":611,"ha":611,"o":"m 67 -3 l 67 23 q 93 35 115 50 q 125 126 125 371 q 125 537 121 591 q 120 620 111 628 q 103 635 39 641 l 39 682 q 154 677 221 677 l 490 680 q 532 680 566 677 l 570 671 q 559 618 554 530 l 516 530 q 513 601 510 606 q 507 611 488 615 q 447 624 364 624 q 323 624 268 621 q 262 470 261 380 q 313 377 359 377 q 427 377 440 381 q 449 384 452 396 q 455 404 459 457 l 501 457 q 499 375 499 350 l 501 240 l 459 240 q 456 304 450 313 q 447 319 437 322 q 413 327 327 327 q 300 327 264 324 q 263 298 263 271 q 263 132 268 57 l 365 55 q 447 55 516 64 q 528 109 539 166 l 580 166 q 568 80 566 1 q 522 -4 481 -4 q 454 -4 375 -2 q 301 0 239 0 q 158 0 67 -3 z"},"s":{"x_min":0,"x_max":444,"ha":444,"o":"m 88 156 q 90 93 94 85 q 105 65 135 50 q 164 35 203 35 q 251 35 275 55 q 298 74 298 106 q 298 134 281 150 q 264 167 208 179 q 123 197 97 211 q 72 225 57 252 q 42 280 42 318 q 42 363 64 397 q 86 432 129 452 q 171 472 240 472 q 312 472 375 448 q 368 409 365 325 l 327 325 q 324 378 318 387 q 311 401 291 411 q 262 424 230 424 q 189 424 166 406 q 144 388 144 360 q 144 334 164 319 q 185 303 262 289 q 315 279 335 271 q 370 256 387 228 q 405 200 405 157 q 405 75 341 31 q 277 -13 189 -13 q 160 -13 124 -6 q 88 0 46 14 l 39 22 q 45 64 46 156 z"},">":{"x_min":0,"x_max":606,"ha":606,"o":"m 54 507 l 54 608 l 552 381 l 552 297 l 54 70 l 54 171 l 426 339 z"},"l":{"x_min":0,"x_max":333,"ha":333,"o":"m 28 651 l 28 680 q 97 689 137 699 q 177 708 224 727 l 236 716 q 229 542 229 229 q 229 166 231 102 q 232 61 236 54 q 239 47 247 43 q 255 40 306 38 l 306 -3 l 254 -1 q 207 0 174 0 l 28 -3 l 28 38 l 64 40 q 88 41 95 49 q 103 57 104 110 q 106 184 106 319 l 106 528 q 105 623 101 635 q 99 641 93 644 q 84 649 28 651 z"},"8":{"x_min":0,"x_max":500,"ha":500,"o":"m 142 337 q 88 366 64 404 q 40 443 40 496 q 40 580 100 635 q 160 691 259 691 q 345 691 390 650 q 435 609 435 539 q 435 496 414 462 q 393 429 337 394 q 400 369 428 335 q 465 290 465 218 q 465 119 397 53 q 330 -13 225 -13 q 133 -13 78 39 q 22 90 22 170 q 22 229 48 267 q 74 306 142 337 z m 289 413 q 320 437 335 466 q 350 495 350 528 q 350 580 321 609 q 292 638 243 638 q 196 638 169 612 q 142 586 142 545 q 142 506 169 478 q 196 450 289 413 z m 185 317 q 148 286 132 253 q 116 219 116 179 q 116 119 152 79 q 189 40 242 40 q 290 40 321 74 q 353 108 353 160 q 353 191 340 217 q 326 242 300 261 q 273 279 185 317 z"},"\\":{"x_min":0,"x_max":606,"ha":606,"o":"m 586 -209 l 525 -208 q 515 -208 470 -210 q 463 -184 456 -165 q 451 -153 428 -101 l 124 580 q 89 657 61 708 l 117 708 q 129 708 177 712 q 185 684 192 661 q 196 650 219 600 l 522 -78 q 561 -163 586 -209 z"},"e":{"x_min":0,"x_max":500,"ha":500,"o":"m 436 92 l 450 78 l 428 31 q 393 9 353 -2 q 312 -13 267 -13 q 161 -13 99 49 q 38 110 38 222 q 38 293 56 339 q 71 377 104 402 q 138 427 181 449 q 225 472 277 472 q 357 472 410 427 q 462 382 462 283 q 462 271 460 246 l 380 231 q 343 229 273 229 l 167 229 q 174 145 217 103 q 260 60 327 60 q 354 60 382 68 q 409 76 436 92 z m 164 281 q 208 277 251 277 q 290 277 333 281 l 333 304 q 333 364 311 391 q 289 419 251 419 q 225 419 206 406 q 187 393 178 370 q 168 346 164 281 z"},"b":{"x_min":0,"x_max":611,"ha":611,"o":"m 117 -13 l 94 -4 q 103 114 103 323 q 103 417 102 468 l 99 594 q 99 623 94 632 q 90 638 82 641 q 75 643 24 645 l 24 680 q 51 680 109 691 q 168 703 197 715 l 219 723 q 228 723 228 711 l 227 660 q 226 634 223 383 l 282 433 q 310 456 332 464 q 354 472 386 472 q 468 472 517 419 q 567 367 567 283 q 567 241 553 197 q 540 153 519 125 q 499 97 467 75 q 426 49 398 28 q 364 2 341 -5 q 318 -13 285 -13 q 252 -13 224 -5 q 196 3 160 25 q 148 17 117 -13 z m 223 333 l 223 108 q 241 82 267 68 q 292 54 324 54 q 376 54 409 96 q 441 138 441 223 q 441 303 408 344 q 375 384 322 384 q 293 384 269 371 q 244 358 223 333 z"},"%":{"x_min":0,"x_max":889,"ha":889,"o":"m 34 474 q 34 591 74 641 q 115 691 188 691 q 259 691 293 648 q 327 604 327 491 q 327 372 287 321 q 248 269 176 269 q 130 269 97 290 q 64 311 49 350 q 34 390 34 474 z m 119 512 q 119 384 141 337 q 154 307 183 307 q 211 307 227 335 q 242 363 242 452 q 242 578 221 624 q 208 653 178 653 q 150 653 135 626 q 119 599 119 512 z m 227 -33 q 250 4 284 73 l 559 621 q 586 677 597 712 q 625 708 639 708 l 662 709 q 637 669 604 604 l 331 54 l 305 2 q 300 -11 292 -34 l 256 -32 z m 562 198 q 562 314 602 365 q 643 415 716 415 q 787 415 821 371 q 855 328 855 214 q 855 96 815 44 q 775 -7 704 -7 q 658 -7 625 14 q 592 35 577 74 q 562 113 562 198 z m 647 235 q 647 108 668 61 q 682 31 711 31 q 739 31 755 59 q 770 86 770 175 q 770 301 749 347 q 736 376 706 376 q 678 376 662 350 q 647 323 647 235 z"},"m":{"x_min":0,"x_max":889,"ha":889,"o":"m 30 -3 l 30 38 q 81 40 88 44 q 95 49 97 61 q 101 85 101 174 q 101 362 96 378 q 92 391 62 392 l 30 393 l 30 430 q 90 437 132 446 q 175 456 209 469 q 216 472 219 472 q 226 472 226 459 q 226 450 225 435 q 224 428 224 410 l 224 393 l 304 453 q 329 472 381 472 q 433 472 464 451 q 495 431 511 387 l 594 453 q 618 472 661 472 q 737 472 773 434 q 810 396 810 312 l 809 271 q 807 204 807 151 q 807 82 811 61 q 814 50 821 45 q 828 41 876 38 l 876 -3 q 815 0 770 0 q 726 0 678 -3 l 672 6 q 686 111 686 211 q 686 330 667 360 q 649 389 603 389 q 572 389 549 374 q 526 359 519 339 q 514 326 514 254 q 514 125 518 76 q 519 54 527 48 q 534 42 589 38 l 589 -3 q 525 0 463 0 q 387 0 326 -3 l 326 38 q 374 38 382 52 q 391 65 391 174 q 391 297 386 328 q 381 358 362 374 q 343 389 310 389 q 286 389 266 378 q 246 367 232 346 q 224 335 224 312 l 225 293 q 226 279 226 216 l 226 159 q 226 76 229 61 q 230 51 237 46 q 243 42 290 38 l 290 -3 q 231 0 162 0 q 137 0 30 -3 z"},"#":{"x_min":0,"x_max":606,"ha":606,"o":"m 522 292 l 522 217 l 417 217 l 385 0 l 308 0 l 339 217 l 232 217 l 200 0 l 124 0 l 156 217 l 52 217 l 52 292 l 168 292 l 185 399 l 80 399 l 80 474 l 195 474 l 226 677 l 300 677 l 271 474 l 377 474 l 407 677 l 484 677 l 454 474 l 547 474 l 547 399 l 443 399 l 428 292 z m 367 399 l 259 399 l 244 292 l 350 292 z"},",":{"x_min":0,"x_max":250,"ha":250,"o":"m 6 -172 l -10 -155 q 26 -93 47 -24 q 69 44 73 103 q 151 114 207 137 l 225 121 q 162 -20 78 -139 q 52 -152 6 -172 z"},"n":{"x_min":0,"x_max":611,"ha":611,"o":"m 28 -3 l 28 38 q 81 41 88 46 q 95 52 96 71 q 99 121 99 245 q 99 307 98 351 q 97 378 94 383 q 91 387 86 389 q 81 391 28 393 l 28 430 q 54 430 110 441 q 166 453 204 467 l 217 472 q 224 472 224 460 l 224 456 q 222 442 222 386 l 298 449 q 312 461 327 466 q 349 472 379 472 q 431 472 464 454 q 497 436 512 405 q 528 373 528 307 q 528 277 526 239 q 524 160 524 102 q 524 69 529 57 q 533 48 540 45 q 547 42 594 38 l 594 -3 l 534 -1 l 495 0 l 395 -3 l 389 3 q 402 96 402 194 q 402 318 387 347 q 367 384 315 384 q 282 384 258 367 q 233 350 226 331 q 223 323 223 282 q 223 105 224 79 q 226 54 232 48 q 241 41 298 38 l 298 -3 q 213 0 154 0 q 120 0 28 -3 z"},"h":{"x_min":0,"x_max":611,"ha":611,"o":"m 23 -3 l 23 38 q 76 41 83 45 q 88 48 91 54 q 96 66 96 143 l 97 323 q 97 466 94 583 q 93 628 85 635 q 78 643 23 645 l 23 680 q 53 680 109 691 q 165 702 201 717 q 215 723 218 723 q 225 723 225 714 l 225 710 q 224 699 224 674 l 220 518 q 219 460 220 386 l 284 440 q 305 458 315 461 q 341 472 375 472 q 452 472 489 434 q 525 396 525 313 l 522 120 q 522 68 526 56 q 529 48 538 44 q 547 40 593 38 l 593 -3 q 533 0 486 0 q 442 0 396 -3 l 389 5 q 399 100 399 191 q 399 316 384 346 q 365 384 314 384 q 284 384 260 370 q 237 355 228 336 q 219 317 219 264 l 221 114 q 221 63 226 53 q 228 48 233 46 q 244 41 297 38 l 297 -3 q 241 0 179 0 q 90 0 23 -3 z"},"z":{"x_min":0,"x_max":500,"ha":500,"o":"m 98 322 l 57 322 q 61 379 61 429 l 61 457 l 66 461 q 216 458 250 458 q 347 458 465 461 l 465 427 q 306 221 192 53 l 280 53 q 395 53 408 61 q 421 69 429 128 l 432 156 l 475 156 q 467 92 465 4 l 460 -3 q 414 -4 392 -4 l 312 -3 q 191 0 165 0 l 18 -3 l 18 31 q 67 90 134 180 q 234 314 298 407 l 209 407 q 146 407 129 404 q 118 402 113 396 q 108 390 103 357 z"},"B":{"x_min":0,"x_max":667,"ha":667,"o":"m 75 -3 l 75 20 q 103 36 118 50 q 124 117 124 348 q 124 515 119 584 q 116 622 108 628 q 98 638 34 641 l 34 682 l 128 680 l 200 678 q 232 678 296 681 q 358 683 385 683 q 494 683 541 647 q 587 610 587 547 q 587 482 541 441 q 495 400 410 383 l 410 379 q 497 370 532 353 q 567 335 589 298 q 610 261 610 213 q 610 155 575 104 q 540 52 481 24 q 423 -3 317 -3 q 296 -3 254 -1 q 215 0 190 0 q 162 0 75 -3 z m 262 399 l 288 399 q 370 399 404 429 q 437 459 437 522 q 437 578 410 604 q 383 631 321 631 q 298 631 265 627 q 262 477 262 443 z m 263 52 q 292 45 316 45 q 386 45 423 85 q 460 125 460 202 q 460 252 443 284 q 426 316 397 332 q 367 347 312 347 l 263 347 l 263 334 l 262 208 l 263 80 z"},"K":{"x_min":0,"x_max":778,"ha":778,"o":"m 35 -3 l 35 38 q 95 42 102 45 q 107 48 110 52 q 115 59 118 81 q 123 120 124 224 l 124 408 q 124 496 121 555 q 119 614 114 624 q 111 630 104 633 q 94 638 35 641 l 35 682 q 123 678 192 678 q 274 678 348 682 l 348 641 q 287 636 277 630 q 268 624 266 599 q 263 568 263 353 l 270 353 q 319 393 412 486 q 504 579 555 641 l 556 659 l 555 677 l 560 682 q 613 678 650 678 q 690 678 739 682 l 739 641 l 711 638 q 678 634 668 630 q 649 622 616 594 q 567 554 493 483 l 406 401 l 451 346 q 530 248 641 124 q 704 53 717 45 q 726 41 763 38 l 763 -3 l 737 -2 l 650 0 q 615 0 560 -3 q 520 47 426 159 q 355 243 292 312 q 283 320 280 322 q 277 323 274 323 q 267 323 264 317 q 262 313 262 278 l 264 130 q 265 65 270 55 q 272 48 279 45 q 289 41 348 38 l 348 -3 q 276 0 188 0 q 144 0 35 -3 z"},"R":{"x_min":0,"x_max":722,"ha":722,"o":"m 35 -3 l 35 38 q 92 42 100 47 q 105 50 108 56 q 113 68 115 135 q 117 240 117 300 q 117 381 115 506 q 113 599 106 620 q 104 626 98 630 q 90 635 35 641 l 35 682 q 136 678 166 678 l 410 682 q 490 682 526 667 q 562 651 584 617 q 605 583 605 538 q 605 479 571 435 q 537 391 453 356 l 557 200 l 638 80 q 661 50 672 44 q 684 38 709 38 l 709 0 l 680 0 q 556 -1 521 -3 q 478 64 394 193 l 293 346 q 297 354 300 364 q 320 361 329 361 q 375 361 418 398 q 462 435 462 502 q 462 562 428 594 q 393 627 324 627 q 302 627 264 624 l 261 479 l 256 297 q 256 235 261 138 q 265 65 269 57 q 272 50 280 46 q 290 41 346 38 l 346 -3 q 258 0 190 0 q 118 0 35 -3 z"},"T":{"x_min":0,"x_max":667,"ha":667,"o":"m 167 -3 l 167 38 q 195 38 226 42 q 240 45 246 51 q 251 56 254 71 q 258 92 260 226 q 262 320 262 419 q 262 613 260 616 q 259 620 226 620 q 158 620 109 616 q 81 614 77 611 q 74 609 72 603 q 70 597 63 517 l 21 517 q 22 610 16 678 l 21 682 q 175 675 321 675 q 466 675 646 682 l 651 674 q 642 607 638 517 l 597 517 q 593 599 588 605 q 585 611 573 613 q 534 619 417 619 q 408 619 406 616 q 404 613 404 590 l 401 262 q 401 120 403 87 q 406 55 415 48 q 421 43 492 38 l 492 -3 q 420 0 339 0 q 233 0 167 -3 z"},"P":{"x_min":0,"x_max":611,"ha":611,"o":"m 38 -3 l 38 38 q 96 42 104 47 q 110 50 113 57 q 118 69 120 158 q 122 247 122 331 q 122 486 119 553 q 116 620 109 628 q 102 636 66 638 l 38 641 l 38 682 l 93 680 q 145 678 175 678 q 216 678 309 681 q 358 683 382 683 q 469 683 511 667 q 553 650 574 616 q 596 583 596 532 q 596 441 532 380 q 468 319 369 319 q 356 319 342 321 q 328 323 312 326 q 303 344 294 360 l 305 373 q 316 370 325 369 q 334 367 341 367 q 391 367 422 401 q 453 435 453 496 q 453 564 421 597 q 389 631 326 631 q 301 631 267 624 q 261 474 261 369 q 261 334 265 145 q 267 70 270 59 q 272 51 279 47 q 290 42 362 38 l 362 -3 q 276 0 217 0 q 190 0 38 -3 z"},"|":{"x_min":0,"x_max":606,"ha":606,"o":"m 254 -208 l 254 712 l 352 712 l 352 -208 z"},"t":{"x_min":0,"x_max":333,"ha":333,"o":"m 11 389 l 76 432 q 75 518 72 583 q 138 604 197 633 l 212 622 q 201 551 197 432 q 220 428 242 428 q 292 428 331 435 l 335 432 l 331 414 q 324 387 320 364 q 263 368 236 368 q 216 368 197 366 q 196 316 196 279 q 196 115 206 92 q 216 70 252 70 q 263 70 276 72 q 288 75 302 79 l 311 61 q 281 28 253 -7 q 235 -10 220 -12 q 205 -13 192 -13 q 151 -13 124 1 q 96 15 84 38 q 71 60 71 104 q 71 128 74 228 q 76 315 76 366 l 51 367 q 36 367 11 364 z"},"M":{"x_min":0,"x_max":1000,"ha":1000,"o":"m 31 -4 l 31 37 l 60 39 q 96 41 105 51 q 114 62 115 121 q 119 241 119 382 q 119 457 118 552 q 117 609 111 622 q 108 628 100 632 q 92 636 31 641 l 31 682 q 90 680 146 680 q 212 680 273 682 q 300 620 328 559 q 348 515 505 190 q 671 524 738 682 q 796 679 849 679 q 911 679 969 682 l 969 641 q 905 637 896 629 q 888 622 886 584 q 882 523 882 351 q 882 264 884 167 q 886 70 891 58 q 894 50 900 46 q 907 42 969 37 l 969 -4 q 890 0 828 0 q 765 0 658 -4 l 658 37 l 687 38 q 721 40 729 48 q 738 56 740 90 q 743 125 743 252 l 743 547 q 667 396 551 152 q 503 51 476 -12 l 443 -12 q 406 72 345 200 l 176 547 l 176 481 q 176 206 179 102 q 180 60 190 50 q 200 40 263 37 l 263 -4 q 213 0 163 0 q 89 0 31 -4 z"},"g":{"x_min":0,"x_max":556,"ha":556,"o":"m 533 373 l 452 373 q 459 349 459 329 q 459 239 395 195 q 331 151 245 151 q 231 151 205 153 q 182 140 176 132 q 170 124 170 114 q 170 91 203 86 q 221 83 401 83 q 461 83 485 73 q 508 62 523 35 q 538 8 538 -34 q 538 -132 460 -199 q 383 -265 250 -265 q 138 -265 83 -226 q 28 -187 28 -125 q 28 -90 45 -67 q 53 -56 99 -30 l 134 -10 q 94 -2 81 11 q 68 24 68 48 q 68 74 87 111 l 103 122 q 131 140 156 161 q 100 181 75 215 q 50 249 50 301 q 50 375 107 424 q 165 472 269 472 q 320 472 359 461 q 388 454 417 434 q 524 433 557 437 l 565 427 q 552 408 533 373 z m 176 332 q 176 259 198 229 q 219 199 260 199 q 297 199 317 225 q 338 251 338 307 q 338 368 317 396 q 295 424 257 424 q 220 424 198 400 q 176 375 176 332 z m 188 -16 q 146 -46 134 -66 q 122 -86 122 -112 q 122 -159 158 -188 q 195 -217 266 -217 q 317 -217 354 -201 q 390 -185 408 -156 q 426 -128 426 -93 q 426 -62 411 -40 q 400 -24 382 -20 q 363 -16 273 -16 z"},"j":{"x_min":0,"x_max":333,"ha":333,"o":"m 167 705 q 198 705 220 683 q 243 661 243 629 q 243 598 220 575 q 198 553 167 553 q 135 553 113 575 q 91 598 91 629 q 91 660 113 683 q 135 705 167 705 z m 11 -260 l -1 -225 l 4 -220 q 24 -222 31 -222 q 52 -222 69 -203 q 92 -178 99 -113 q 106 -48 106 140 q 106 228 104 327 q 103 371 98 381 q 95 386 89 388 q 83 390 26 393 l 26 430 q 121 440 182 458 l 229 472 q 236 472 236 465 l 235 452 q 229 340 228 185 q 228 26 226 -6 q 220 -88 195 -144 q 170 -200 126 -231 q 83 -263 41 -263 q 30 -263 11 -260 z"},"i":{"x_min":0,"x_max":333,"ha":333,"o":"m 167 705 q 198 705 220 683 q 243 661 243 629 q 243 598 220 575 q 198 553 167 553 q 135 553 113 575 q 91 598 91 629 q 91 661 113 683 q 135 705 167 705 z m 31 -3 l 31 38 q 86 40 94 44 q 103 49 105 72 q 109 103 109 208 q 109 253 108 292 l 106 349 q 106 377 100 384 q 94 390 67 391 l 31 393 l 31 430 q 148 439 225 472 l 237 462 q 230 369 230 190 q 230 87 233 66 q 236 51 242 46 q 249 42 307 38 l 307 -3 q 218 0 170 0 q 144 0 31 -3 z"},"y":{"x_min":0,"x_max":556,"ha":556,"o":"m 2 421 l 2 461 q 114 458 146 458 q 189 458 268 461 l 268 421 q 223 419 214 415 q 206 410 206 399 q 206 385 253 264 l 307 129 l 352 236 q 413 379 413 401 q 413 411 405 415 q 396 419 352 421 l 352 461 l 383 460 q 432 458 448 458 q 466 458 540 461 l 540 421 q 516 421 501 414 q 495 411 490 403 q 482 393 428 269 l 337 61 l 253 -132 q 224 -191 201 -215 q 179 -238 152 -250 q 125 -261 92 -261 q 59 -261 21 -245 q 33 -196 39 -150 l 52 -146 q 81 -178 119 -178 q 151 -178 172 -157 q 193 -136 237 -36 l 128 241 l 68 389 q 61 407 52 413 q 42 418 2 421 z"},"@":{"x_min":0,"x_max":747,"ha":747,"o":"m 636 177 l 700 177 q 671 124 644 96 q 594 46 532 18 q 470 -10 397 -10 q 299 -10 216 36 q 132 83 87 160 q 42 238 42 333 q 42 431 88 513 q 134 595 214 641 q 294 688 389 688 q 523 688 621 601 q 706 525 706 410 q 706 335 676 278 q 646 221 586 181 q 527 141 483 141 q 455 141 436 160 q 417 178 411 223 q 379 180 360 167 q 331 146 295 146 q 244 146 206 186 q 167 226 167 286 q 167 343 197 394 q 226 445 276 476 q 326 507 375 507 q 407 507 428 490 q 448 473 457 438 l 472 498 l 567 498 l 495 227 l 493 222 q 489 210 489 201 q 489 188 495 181 q 501 174 510 174 q 530 174 561 200 q 601 234 627 293 q 653 351 653 404 q 653 494 578 562 q 503 631 395 631 q 309 631 240 593 q 172 556 134 488 q 95 419 95 337 q 95 256 133 190 q 171 125 243 85 q 315 46 402 46 q 450 46 490 60 q 529 74 566 102 q 602 130 636 177 z m 438 401 q 438 440 424 459 q 410 477 389 477 q 366 477 340 454 q 313 430 288 365 q 263 300 263 249 q 263 213 277 194 q 292 176 312 176 q 339 176 370 209 q 400 242 419 304 q 438 367 438 401 z"},".":{"x_min":0,"x_max":250,"ha":250,"o":"m 125 143 q 157 143 180 120 q 203 98 203 65 q 203 33 180 10 q 157 -13 125 -13 q 93 -13 70 10 q 47 33 47 65 q 47 97 70 120 q 92 143 125 143 z"},"p":{"x_min":0,"x_max":611,"ha":611,"o":"m 26 393 l 26 430 q 112 438 168 455 l 220 472 q 227 472 227 460 q 227 450 225 433 l 224 387 l 303 449 q 328 469 386 469 q 468 469 518 418 q 568 367 568 281 q 568 237 555 195 q 543 153 526 128 q 509 104 466 70 q 392 11 378 3 q 350 -13 311 -13 q 289 -13 267 -8 q 245 -2 224 8 l 226 -141 q 228 -194 237 -203 q 246 -212 309 -212 l 309 -252 q 233 -249 177 -249 q 70 -249 26 -252 l 26 -212 q 78 -211 85 -207 q 90 -204 93 -197 q 97 -186 99 -97 q 102 27 102 87 l 101 281 q 101 367 96 379 q 93 385 88 388 q 80 393 26 393 z m 224 104 q 246 76 271 62 q 297 48 328 48 q 378 48 410 91 q 442 134 442 229 q 442 307 409 346 q 376 386 326 386 q 300 386 275 374 q 249 362 224 337 z"},"X":{"x_min":0,"x_max":667,"ha":667,"o":"m 15 -3 l 15 38 q 59 41 69 46 q 79 52 115 99 l 280 318 q 203 453 156 525 q 110 598 87 613 q 75 621 58 621 q 47 621 26 618 l 21 658 l 204 694 q 234 673 252 649 q 271 625 321 532 l 373 437 l 492 611 q 523 655 538 682 q 565 678 587 678 q 615 678 652 682 l 652 642 q 611 639 602 633 q 588 625 555 582 l 403 384 l 436 326 q 520 173 553 121 q 598 51 607 45 q 615 40 652 38 l 652 -3 q 597 0 546 0 q 501 0 458 -3 q 440 27 407 86 l 310 264 l 214 126 q 197 101 134 -3 q 96 0 77 0 q 58 0 15 -3 z"},"*":{"x_min":0,"x_max":444,"ha":444,"o":"m 229 327 l 212 334 q 208 413 202 479 l 101 375 l 83 377 q 67 416 43 452 l 47 461 q 129 488 185 512 l 47 571 l 43 579 q 75 625 90 655 l 106 655 q 155 597 206 541 l 220 683 l 229 689 q 274 674 321 667 l 326 653 q 298 613 242 525 l 385 556 l 390 552 q 394 511 401 467 l 390 456 q 308 477 236 491 l 315 369 l 312 362 q 263 345 229 327 z"},"Y":{"x_min":0,"x_max":667,"ha":667,"o":"m 195 -3 l 195 38 q 245 38 265 46 q 276 52 280 69 q 281 74 284 164 l 285 200 q 285 266 278 282 q 268 310 203 412 q 139 514 104 558 q 70 602 47 615 q 39 620 25 620 l 2 619 l 2 658 q 83 672 162 692 q 188 680 205 663 q 230 638 274 566 q 318 493 386 356 l 426 425 q 481 518 570 682 l 650 682 l 650 658 q 624 627 554 517 q 443 344 431 314 q 423 295 423 239 q 423 124 428 77 q 430 52 441 46 q 451 40 517 38 l 517 -3 q 446 0 372 0 q 291 0 195 -3 z"},"c":{"x_min":0,"x_max":444,"ha":444,"o":"m 384 296 l 344 296 q 340 354 335 363 q 329 376 307 388 q 285 399 251 399 q 199 399 176 369 q 152 340 152 263 q 152 166 196 113 q 241 60 311 60 q 336 60 357 64 q 378 69 396 77 l 404 66 q 394 43 384 19 q 352 3 319 -5 q 285 -13 251 -13 q 145 -13 85 46 q 26 104 26 213 q 26 253 34 285 q 42 318 55 341 q 68 363 84 377 q 94 385 168 432 q 212 459 232 465 q 251 472 285 472 q 314 472 342 467 q 370 463 396 454 l 404 445 q 387 364 384 296 z"},"!":{"x_min":0,"x_max":278,"ha":278,"o":"m 166 678 l 218 678 q 217 604 197 479 q 180 364 159 210 l 122 189 l 116 194 q 105 294 78 488 q 65 575 65 634 q 121 661 166 678 z m 138 143 q 170 143 193 120 q 216 98 216 65 q 216 33 193 10 q 170 -13 138 -13 q 106 -13 83 10 q 60 33 60 65 q 60 97 83 120 q 106 143 138 143 z"},"/":{"x_min":0,"x_max":296,"ha":296,"o":"m -126 -205 q -103 -160 -69 -75 l 206 601 q 226 652 230 664 q 236 682 243 712 q 306 708 317 708 l 359 708 q 333 658 301 580 l 27 -98 l 2 -163 q -3 -178 -10 -206 l -75 -204 z"},"[":{"x_min":0,"x_max":333,"ha":333,"o":"m 73 708 l 77 712 q 145 709 191 709 q 243 709 315 712 l 315 667 q 232 663 217 654 q 212 651 209 645 q 204 630 201 513 q 199 404 199 251 q 199 99 201 -17 q 204 -132 209 -147 q 212 -153 218 -157 q 233 -165 315 -169 l 315 -214 q 242 -211 193 -211 q 142 -211 77 -214 l 73 -210 q 85 -82 85 251 q 85 580 73 708 z"},"6":{"x_min":0,"x_max":500,"ha":500,"o":"m 162 345 q 218 402 240 413 q 269 427 313 427 q 383 427 427 377 q 471 326 471 236 q 471 125 405 53 q 345 -13 250 -13 q 185 -13 134 19 q 84 52 56 112 q 29 173 29 273 q 29 405 75 494 q 122 582 209 636 q 296 690 396 691 l 438 654 l 422 637 q 394 642 379 642 q 331 642 281 608 q 230 574 201 514 q 171 454 162 345 z m 250 339 q 207 339 183 312 q 159 285 159 226 q 159 125 187 82 q 215 40 261 40 q 300 40 325 74 q 350 107 350 179 q 350 264 321 305 q 296 339 250 339 z"},"r":{"x_min":0,"x_max":389,"ha":389,"o":"m 10 -3 l 10 38 q 60 40 67 43 q 73 46 76 53 q 82 64 83 104 q 84 176 84 234 q 84 347 82 368 q 80 380 73 385 q 65 391 10 393 l 10 430 q 109 439 151 453 l 202 472 q 208 472 208 462 l 208 456 q 206 425 206 367 q 231 391 261 428 q 284 455 300 463 q 317 472 345 472 q 360 472 376 466 q 372 417 371 333 l 349 326 q 337 345 324 352 q 311 360 289 360 q 260 360 239 345 q 218 330 212 310 q 208 295 208 210 q 208 87 211 66 q 213 53 221 48 q 232 41 294 38 l 294 -3 l 240 -1 q 188 0 149 0 q 113 0 65 -1 z"},"2":{"x_min":0,"x_max":500,"ha":500,"o":"m 18 -5 l 18 50 l 119 148 q 243 269 279 333 q 315 396 315 456 q 315 516 286 547 q 256 579 206 579 q 168 579 139 562 q 111 546 104 530 q 101 522 83 447 l 42 447 q 58 545 62 619 q 100 657 143 674 q 187 691 241 691 q 338 691 394 638 q 450 586 450 503 q 450 436 406 369 q 362 301 163 121 l 166 115 l 280 115 q 407 115 477 121 l 482 115 q 477 73 477 52 q 477 30 482 0 l 477 -5 q 381 0 259 0 q 168 0 18 -5 z"},"{":{"x_min":0,"x_max":310,"ha":310,"o":"m 127 247 q 173 235 191 210 q 209 185 209 132 l 209 -116 q 209 -140 220 -164 q 227 -181 243 -194 q 259 -207 289 -214 q 203 -213 182 -208 q 138 -199 118 -173 q 98 -146 98 -87 l 98 153 q 98 195 82 214 q 60 239 21 247 q 98 267 98 340 l 98 598 q 98 667 142 691 q 178 712 289 712 l 278 708 q 252 700 238 688 q 225 675 218 660 q 209 637 209 613 l 209 354 q 209 322 201 302 q 193 282 177 269 q 161 256 127 247 z"},"9":{"x_min":0,"x_max":500,"ha":500,"o":"m 336 338 q 282 281 259 271 q 229 256 186 256 q 116 256 72 306 q 28 357 28 447 q 28 556 91 623 q 154 691 250 691 q 316 691 366 659 q 417 626 444 567 q 471 508 471 407 q 471 270 426 181 q 382 92 297 36 q 213 -19 103 -25 l 61 8 l 73 26 q 103 23 114 23 q 169 23 220 57 q 271 91 299 154 q 328 216 336 338 z m 251 344 q 292 344 316 372 q 340 399 340 459 q 340 556 312 597 q 284 638 238 638 q 198 638 173 605 q 149 573 149 503 q 149 418 179 378 q 203 344 251 344 z"}," ":{"x_min":0,"x_max":250,"ha":250,"o":""},"I":{"x_min":0,"x_max":389,"ha":389,"o":"m 35 -3 l 35 38 q 103 41 111 49 q 120 57 122 87 q 125 152 125 328 q 125 395 124 523 q 123 610 120 619 q 117 627 109 631 q 99 637 35 641 l 35 682 q 136 678 189 678 q 281 678 355 682 l 355 641 q 289 637 280 630 q 271 624 269 600 q 265 553 265 410 q 265 219 266 144 q 268 69 275 55 q 278 49 287 45 q 297 42 355 38 l 355 -3 l 297 -2 q 243 0 200 0 z"},"H":{"x_min":0,"x_max":833,"ha":833,"o":"m 34 -3 l 34 38 q 98 41 107 46 q 115 52 118 69 q 123 96 123 205 l 123 472 q 122 607 118 619 q 115 626 109 630 q 100 637 34 641 l 34 682 q 132 678 189 678 q 279 678 354 682 l 354 641 q 294 637 283 632 q 277 629 274 623 q 269 614 267 566 q 264 496 264 424 l 264 383 q 315 381 425 381 q 523 381 570 383 q 570 542 566 594 q 564 622 556 628 q 545 638 480 641 l 480 682 q 602 678 645 678 q 718 678 800 682 l 800 641 q 738 637 728 631 q 722 628 719 623 q 714 612 712 543 q 709 437 709 371 l 712 149 q 713 74 716 62 q 720 51 728 47 q 735 42 800 38 l 800 -3 l 746 -2 q 685 0 650 0 q 578 0 480 -3 l 480 38 q 545 41 554 48 q 563 56 565 88 q 569 143 570 323 q 515 325 448 325 q 343 325 264 323 l 264 291 q 264 163 268 99 q 270 56 279 49 q 289 42 354 38 l 354 -3 l 296 -2 q 242 0 199 0 z"},"4":{"x_min":0,"x_max":500,"ha":500,"o":"m 254 172 q 113 172 7 169 l 5 183 l 0 212 q 44 315 117 443 q 189 570 256 660 q 306 668 381 685 l 392 675 q 388 606 385 532 l 378 253 q 432 253 468 255 l 471 248 l 471 232 l 470 203 l 470 172 l 468 168 q 425 172 378 172 l 377 149 q 377 64 385 54 q 395 42 468 37 l 473 34 l 473 -1 l 468 -5 q 375 0 308 0 q 270 0 243 -1 l 135 -5 l 131 0 l 131 37 l 135 41 q 219 45 228 48 q 242 53 246 65 q 250 80 254 172 z m 254 253 l 262 587 q 230 547 170 441 q 110 336 74 253 q 125 252 159 252 z"},"~":{"x_min":0,"x_max":606,"ha":606,"o":"m 541 417 l 569 417 q 566 341 529 301 q 493 260 438 260 q 412 260 383 268 q 354 276 254 318 q 183 348 151 348 q 81 348 65 260 l 37 260 q 41 339 76 378 q 112 418 164 418 q 191 418 218 410 q 269 396 351 360 q 396 340 422 333 q 437 329 455 329 q 490 329 513 352 q 537 375 541 417 z"},"D":{"x_min":0,"x_max":833,"ha":833,"o":"m 69 -3 l 69 21 q 103 41 117 51 q 124 137 124 373 q 124 475 122 543 q 120 612 115 622 q 113 626 109 629 q 102 633 37 641 l 37 682 q 111 680 207 680 l 447 682 q 579 682 647 649 q 715 616 755 547 q 795 479 795 381 q 795 256 732 165 q 670 74 580 36 q 490 -3 388 -3 l 203 0 q 159 0 69 -3 z m 267 57 q 308 50 351 50 q 460 50 517 81 q 574 112 610 183 q 645 254 645 358 q 645 494 575 565 q 513 629 372 629 q 342 629 267 624 l 263 319 q 263 127 267 57 z"},"^":{"x_min":0,"x_max":606,"ha":606,"o":"m 161 280 l 54 280 l 252 678 l 354 678 l 552 280 l 445 280 l 303 556 z"},"0":{"x_min":0,"x_max":500,"ha":500,"o":"m 27 329 q 27 470 55 544 q 83 618 136 655 q 189 691 262 691 q 333 691 379 660 q 425 628 449 562 q 473 495 473 357 q 473 215 444 137 q 416 60 365 23 q 314 -13 243 -13 q 174 -13 124 21 q 74 55 51 121 q 27 186 27 329 z m 148 393 q 148 237 162 163 q 176 88 203 61 q 224 40 254 40 q 300 40 323 83 q 352 136 352 289 q 352 476 325 567 q 304 638 246 638 q 200 638 174 592 q 148 545 148 393 z"},"F":{"x_min":0,"x_max":556,"ha":556,"o":"m 36 -3 l 36 38 q 98 38 108 47 q 116 53 118 82 q 124 177 124 301 q 124 394 121 499 q 119 605 113 621 q 110 628 104 631 q 96 637 36 640 l 36 681 q 122 679 183 679 q 273 679 372 681 q 437 683 481 683 q 513 683 542 681 l 546 671 q 536 609 534 525 l 493 525 l 489 577 q 487 602 482 608 q 477 613 446 619 q 415 625 357 625 q 315 625 268 621 q 262 538 262 504 l 263 399 l 263 376 q 292 375 333 375 q 408 375 423 379 q 431 381 435 387 q 440 397 443 448 l 485 448 q 484 405 484 362 q 484 322 485 235 l 443 235 q 439 298 434 309 q 431 315 422 317 q 398 324 327 324 l 263 323 l 265 135 q 267 67 271 57 q 275 50 282 46 q 292 42 363 38 l 363 -3 q 285 0 217 0 q 156 0 36 -3 z"},"`":{"x_min":0,"x_max":333,"ha":333,"o":"m 237 514 l 117 578 q 66 605 57 615 q 48 625 48 640 q 48 656 59 667 q 71 678 89 678 q 104 678 118 670 q 131 663 172 624 l 285 514 z"},"k":{"x_min":0,"x_max":611,"ha":611,"o":"m 24 -3 l 24 38 q 76 40 85 44 q 89 47 92 53 q 96 64 97 151 q 99 238 99 333 q 99 409 96 528 q 94 615 92 625 q 89 634 81 639 q 73 644 24 645 l 24 680 q 89 686 130 695 q 171 704 205 719 q 214 723 218 723 q 225 723 225 710 l 224 689 q 222 653 221 414 l 220 277 l 221 250 q 324 338 434 461 q 468 459 496 459 q 528 459 565 461 l 565 421 q 511 418 500 415 q 488 411 466 394 q 444 377 344 288 l 414 208 q 535 70 557 52 q 571 40 597 38 l 597 -3 q 542 0 496 0 q 460 0 426 -3 q 377 61 329 116 q 263 190 221 231 l 221 152 q 221 84 227 60 q 229 49 236 45 q 244 41 296 38 l 296 -3 q 202 0 170 0 q 139 0 24 -3 z"},"u":{"x_min":0,"x_max":611,"ha":611,"o":"m 19 393 l 19 430 q 97 438 165 458 l 213 475 q 222 475 222 464 l 220 435 q 212 323 212 218 q 212 151 219 129 q 226 106 243 94 q 261 82 291 82 q 326 82 352 101 q 378 120 384 143 q 390 166 390 274 q 390 360 387 375 q 385 383 380 386 q 373 390 314 393 l 314 430 q 414 441 461 457 l 513 475 q 521 475 521 465 l 520 452 q 512 367 512 144 q 512 75 516 58 q 518 49 523 46 q 531 42 585 38 l 585 -3 q 529 0 474 0 q 429 0 390 -3 l 386 6 q 388 30 390 83 q 345 46 302 2 q 268 -13 234 -13 q 189 -13 156 5 q 123 23 107 52 q 91 81 91 134 l 92 187 q 93 236 93 267 q 93 354 90 371 q 87 382 80 387 q 72 392 19 393 z"},"]":{"x_min":0,"x_max":333,"ha":333,"o":"m 260 708 q 248 579 248 251 q 248 -81 260 -210 l 256 -214 q 181 -210 139 -210 q 98 -210 18 -214 l 18 -169 q 100 -165 116 -157 q 121 -154 124 -147 q 130 -132 132 -13 q 134 99 134 251 q 134 404 132 517 q 129 631 124 645 q 121 651 116 654 q 101 663 18 667 l 18 712 q 73 710 155 710 q 214 710 256 712 z"},"U":{"x_min":0,"x_max":778,"ha":778,"o":"m 28 641 l 28 682 q 127 678 203 678 q 250 678 338 682 l 338 641 q 293 641 274 633 q 268 630 264 625 q 259 618 257 602 q 254 574 252 444 q 250 354 250 261 q 250 184 268 148 q 286 112 319 95 q 368 70 426 70 q 504 70 546 96 q 587 122 602 167 q 616 212 616 366 l 615 546 q 615 607 609 620 q 606 626 599 630 q 587 637 528 641 l 528 682 q 591 678 644 678 q 690 678 757 682 l 757 641 q 708 641 697 630 q 685 619 682 574 q 677 465 676 327 q 676 238 674 211 q 668 144 641 96 q 614 48 550 18 q 487 -13 393 -13 q 294 -13 229 16 q 165 45 137 90 q 110 135 110 221 l 112 441 q 112 467 110 575 q 109 609 103 621 q 99 628 91 632 q 83 636 28 641 z"},"o":{"x_min":0,"x_max":556,"ha":556,"o":"m 40 229 q 40 345 94 403 q 159 472 282 472 q 404 472 460 417 q 516 361 516 242 q 516 120 451 53 q 387 -13 271 -13 q 158 -13 99 49 q 40 111 40 229 z m 175 263 q 175 133 208 78 q 234 35 286 35 q 332 35 356 71 q 381 107 381 203 q 381 333 351 384 q 326 424 273 424 q 228 424 201 387 q 175 351 175 263 z"},"N":{"x_min":0,"x_max":833,"ha":833,"o":"m 33 -3 l 33 38 q 93 40 103 45 q 110 49 113 58 q 119 70 120 141 q 123 258 123 317 l 122 524 q 122 606 117 619 q 114 626 107 629 q 98 635 33 641 l 33 682 q 110 679 147 679 q 188 679 241 682 q 353 538 495 370 q 589 258 657 185 l 657 378 q 657 488 654 567 q 652 615 646 625 q 644 631 636 634 q 628 636 567 641 l 567 682 q 621 679 673 679 q 746 679 804 682 l 804 641 q 750 637 738 633 q 732 630 728 626 q 724 622 722 615 q 719 603 718 540 l 717 344 l 716 147 q 716 68 719 -11 l 713 -18 q 654 -7 629 -3 q 504 136 326 346 q 236 453 181 525 l 181 335 q 181 258 184 148 q 185 68 190 56 q 192 50 198 47 q 207 42 268 38 l 268 -3 q 189 0 155 0 q 126 0 33 -3 z"},"+":{"x_min":0,"x_max":606,"ha":606,"o":"m 54 293 l 54 385 l 257 385 l 257 588 l 349 588 l 349 385 l 552 385 l 552 293 l 349 293 l 349 90 l 257 90 l 257 293 z"},"G":{"x_min":0,"x_max":833,"ha":833,"o":"m 488 237 l 488 277 q 577 275 646 275 q 711 275 786 277 l 786 246 q 764 239 745 229 q 739 180 739 146 q 739 121 745 47 q 648 12 583 -1 q 518 -13 448 -13 q 259 -13 153 85 q 46 183 46 338 q 46 499 155 595 q 264 691 467 691 q 539 691 605 680 q 671 668 730 646 l 735 638 q 721 576 714 484 l 673 484 q 672 530 667 566 q 635 602 586 620 q 537 638 470 638 q 345 638 270 562 q 196 486 196 354 q 196 212 274 126 q 353 40 467 40 q 528 40 597 70 q 601 107 601 141 q 601 216 592 224 q 583 232 488 237 z"},"q":{"x_min":0,"x_max":611,"ha":611,"o":"m 300 -252 l 300 -212 q 325 -210 337 -210 q 363 -209 371 -204 q 376 -200 379 -191 q 382 -182 384 -89 l 386 78 q 349 52 319 26 l 284 -3 q 258 -13 234 -13 q 150 -13 96 45 q 43 103 43 203 q 43 254 54 294 q 66 335 81 354 q 96 374 144 406 q 192 439 245 460 q 274 472 307 472 q 344 472 381 461 q 417 451 453 429 q 477 451 504 472 l 525 461 q 516 411 513 372 q 508 282 508 110 q 508 -103 509 -154 q 510 -194 519 -202 q 527 -209 585 -212 l 585 -252 q 507 -249 449 -249 q 370 -249 300 -252 z m 386 138 l 386 355 q 364 383 337 397 q 311 411 280 411 q 224 411 196 370 q 169 329 169 249 q 169 167 202 125 q 236 82 286 82 q 313 82 341 97 q 368 111 386 138 z"},"d":{"x_min":0,"x_max":611,"ha":611,"o":"m 397 451 l 397 535 q 397 614 394 626 q 391 636 384 639 q 377 643 318 645 l 318 680 q 435 692 514 727 l 526 715 q 521 636 521 566 l 517 183 q 517 86 521 65 q 522 52 530 47 q 538 42 590 38 l 590 -3 q 530 0 474 0 q 433 0 397 -3 l 389 3 q 395 52 397 83 q 364 58 291 -3 q 263 -13 239 -13 q 158 -13 104 47 q 50 107 50 208 q 50 256 61 296 q 72 336 87 356 q 102 376 146 407 q 208 450 236 461 q 264 472 297 472 q 321 472 346 467 q 371 461 397 451 z m 397 346 q 374 379 345 395 q 315 411 280 411 q 229 411 203 375 q 176 339 176 255 q 176 168 209 125 q 242 82 293 82 q 328 82 357 102 q 387 122 392 139 q 397 155 397 265 z"},"1":{"x_min":0,"x_max":500,"ha":500,"o":"m 60 -3 l 55 2 l 55 32 l 60 38 q 153 46 165 51 q 174 55 178 63 q 185 77 187 159 q 191 300 191 409 q 191 552 188 568 q 186 577 179 577 q 174 577 165 573 l 31 512 l 24 516 q 21 551 14 575 l 18 583 q 202 635 323 685 l 335 677 q 329 609 326 492 q 323 375 323 208 q 323 95 329 67 q 332 54 340 50 q 353 43 439 38 l 445 32 l 445 2 l 439 -3 l 379 -2 q 287 0 255 0 q 165 0 60 -3 z"},"5":{"x_min":0,"x_max":500,"ha":500,"o":"m 15 151 l 15 155 l 47 165 q 86 93 124 69 q 161 44 209 44 q 267 44 302 83 q 337 122 337 189 q 337 257 300 295 q 264 334 201 334 q 171 334 146 325 q 121 316 87 292 l 67 303 q 76 425 76 503 q 76 602 68 678 l 75 684 q 183 678 274 678 q 362 678 431 684 l 437 673 q 431 641 431 618 q 431 605 433 569 l 426 562 q 336 566 248 566 q 188 566 130 564 l 125 402 q 160 423 188 431 q 217 439 253 439 q 352 439 405 388 q 458 338 458 250 q 458 143 375 65 q 291 -13 167 -13 q 134 -13 104 -7 q 74 -1 47 11 q 36 76 15 151 z"}}}
